PathFileType	4	(X/Y/Z)	D:\TRACE\spotREDO_2-26-24\spot_justBody_Motion_1_2-platform.trc
DataRate	CameraRate	NumFrames	NumMarkers	Units	OrigDataRate	OrigDataStartFrame	OrigNumFrames
100.00	100.00	      72	5	mm	100.00	1751	      7000
Frame#	Time	Left_Front			Right_Front			Left_Aft			Right_Aft			Post			
		X1	Y1	Z1	X2	Y2	Z2	X3	Y3	Z3	X4	Y4	Z4	X5	Y5	Z5	

1751	17.500	-723.57813	-18.10187	-579.14587	690.99512	-7.47251	-494.65024	-794.86011	19.37305	639.67041	775.55853	26.32635	642.39221	-14.21592	599.21808	-999.66742	
1752	17.510	-722.83624	-18.52415	-579.18024	692.13074	-7.77848	-494.79047	-794.00708	19.69699	639.40552	776.12701	26.55371	641.87457	-12.82585	598.45380	-1000.17938	
1753	17.520	-721.99011	-19.01422	-579.26666	692.73956	-8.24402	-494.74066	-793.34833	20.09112	639.25500	776.86877	26.90055	641.94653	-12.16159	598.03571	-1000.54425	
1754	17.530	-721.24878	-19.25775	-579.48486	693.39227	-8.45062	-494.90637	-792.66522	20.32176	639.21326	777.52112	27.45271	642.07440	-11.45161	597.27527	-1001.43030	
1755	17.540	-720.46075	-19.50932	-579.50708	694.30682	-8.65649	-495.26300	-791.43799	20.88904	639.28125	778.55603	27.75709	641.82043	-11.03805	596.67633	-1002.39264	
1756	17.550	-719.41229	-19.82324	-579.42639	695.31653	-9.18264	-495.00473	-790.88708	21.02315	639.06232	779.41937	28.36407	641.93793	-10.27040	596.15906	-1003.02948	
1757	17.560	-718.63843	-20.28871	-579.55469	695.96454	-9.38591	-495.12918	-789.90466	21.30591	639.03540	780.04730	28.46942	641.92401	-9.19803	595.43018	-1003.69647	
1758	17.570	-717.76245	-20.61823	-579.62677	696.81573	-9.63203	-495.27298	-789.26080	22.03893	638.61383	780.93298	29.00834	641.80603	-8.03321	594.69629	-1003.81183	
1759	17.580	-716.95343	-20.95450	-579.72693	697.58624	-10.11631	-495.25385	-788.49634	22.50017	638.56024	781.67352	29.46270	641.65955	-7.78500	594.29633	-1004.59698	
1760	17.590	-716.38409	-21.30236	-579.72571	698.53992	-10.23072	-495.34100	-787.38629	22.30901	638.53241	782.54395	29.85279	641.57367	-6.69780	593.71320	-1004.79999	
1761	17.600	-715.29938	-21.65990	-579.87482	699.41388	-10.60295	-495.56781	-786.35071	22.79968	638.44672	783.60834	29.94351	641.52594	-5.94354	593.21906	-1004.91339	
1762	17.610	-714.26013	-22.11807	-580.02155	700.13184	-10.95062	-495.55261	-785.75275	23.01430	638.21973	784.63074	30.48836	641.43738	-4.85617	592.70221	-1005.25873	
1763	17.620	-713.57300	-22.17480	-580.05048	701.20319	-11.06217	-495.54498	-785.00281	23.49267	638.05078	785.20093	30.63679	641.33069	-3.75658	592.29016	-1005.31671	
1764	17.630	-712.67926	-22.60701	-580.17603	702.09552	-11.28833	-495.68680	-783.80499	23.74339	638.20850	786.20239	31.07968	641.28790	-2.98556	591.63629	-1005.33740	
1765	17.640	-711.72571	-22.76225	-580.13684	702.95892	-11.60580	-495.71649	-782.96259	24.16912	638.16577	787.08954	31.29707	641.17853	-2.39341	591.14575	-1005.98956	
1766	17.650	-710.87750	-23.12460	-580.26569	703.78906	-11.66139	-495.91492	-782.18359	24.38504	637.92792	787.91467	31.79540	641.08191	-1.15732	590.66620	-1006.32452	
1767	17.660	-709.90863	-23.60477	-580.38171	704.83893	-11.72758	-495.89615	-781.27118	24.78389	637.87024	788.90594	32.05796	641.01666	-0.59205	590.33716	-1006.51178	
1768	17.670	-709.01758	-23.71306	-580.27411	705.52484	-12.04521	-495.92020	-780.30060	25.13824	637.68329	789.68768	32.28413	640.79468	0.57459	589.70398	-1007.20734	
1769	17.680	-708.21130	-23.91426	-580.42871	706.59406	-12.47858	-496.04034	-779.76508	25.37952	637.64178	790.50238	32.46153	640.83704	1.45020	589.32330	-1007.71167	
1770	17.690	-707.20209	-24.16470	-580.47864	707.45050	-12.65091	-496.09073	-778.60681	25.65031	637.54498	792.22876	33.28573	640.92041	2.25153	588.83099	-1008.28186	
1771	17.700	-706.41650	-24.33192	-580.54138	708.41547	-12.93364	-496.19226	-777.55243	25.77516	637.48181	792.33179	33.20933	640.65857	3.28232	588.35193	-1008.82062	
1772	17.710	-705.31226	-24.74588	-580.57214	709.35925	-13.14415	-496.18991	-776.87769	26.00051	637.45679	793.65472	32.96328	640.27814	4.06958	587.85480	-1009.03015	
1773	17.720	-704.21991	-25.03127	-580.61151	710.26764	-13.36725	-496.21277	-775.85260	26.47770	637.41272	794.38538	33.35036	640.26434	4.91516	587.37964	-1009.45953	
1774	17.730	-703.59711	-25.25168	-580.67780	711.39465	-13.62833	-496.23215	-774.97034	26.91388	637.22449	795.29291	33.84330	640.43341	5.89219	586.99878	-1009.70795	
1775	17.740	-702.56592	-25.35619	-580.64911	712.25214	-13.75299	-496.18970	-773.84412	26.80271	637.21765	796.24091	34.08272	640.39795	6.82978	586.72833	-1009.64832	
1776	17.750	-701.45721	-25.67443	-580.80328	713.00555	-13.84147	-496.35587	-773.20959	27.19896	637.15698	797.38306	34.32220	640.34131	7.92268	586.29956	-1009.66058	
1777	17.760	-700.63416	-25.86210	-580.83887	714.36353	-14.00951	-496.40689	-772.15259	27.60985	637.07104	798.12726	34.55625	640.29565	9.06606	585.84094	-1009.79999	
1778	17.770	-699.53503	-26.21085	-580.85974	715.09583	-14.23036	-496.35840	-771.20416	27.81186	636.92285	799.06622	34.79045	640.11292	9.87762	585.63776	-1010.02032	
1779	17.780	-698.54120	-26.48536	-580.89288	716.01099	-14.37737	-496.48618	-770.28571	27.81845	636.90082	800.05768	35.21442	640.23145	10.65751	585.36346	-1010.30194	
1780	17.790	-697.68481	-26.50254	-580.82025	717.22876	-14.58588	-496.44479	-769.20270	28.07161	636.91327	801.13037	35.33798	640.23352	11.83670	585.11456	-1010.53937	
1781	17.800	-696.78534	-26.71633	-580.98187	717.95459	-14.80159	-496.45462	-768.28827	28.27200	636.76056	801.91077	34.90560	639.74786	12.82522	584.68561	-1010.89703	
1782	17.810	-695.87140	-26.85758	-580.98547	718.89001	-15.00010	-496.65405	-767.17432	28.21699	636.85687	802.99194	35.43996	639.84143	13.75159	584.19373	-1011.11310	
1783	17.820	-694.68976	-27.04703	-581.12476	720.04474	-14.94109	-496.60617	-766.24188	28.35956	636.83191	804.07825	35.89917	639.96863	15.25560	583.85431	-1011.33191	
1784	17.830	-693.74347	-27.33699	-581.17908	721.11938	-15.19007	-496.48035	-765.06824	28.69973	636.74249	804.99548	36.10818	639.90118	15.91410	583.69928	-1011.57806	
1785	17.840	-692.95868	-27.55457	-581.11823	721.97253	-15.36830	-496.53125	-764.37164	28.74682	636.72546	805.69385	36.07677	639.85706	16.99558	583.40039	-1011.91571	
1786	17.850	-691.93799	-27.54777	-581.11298	722.65314	-15.17365	-496.85001	-763.43030	29.00074	636.68347	806.65717	36.20236	639.71851	17.62256	583.13013	-1012.61761	
1787	17.860	-690.97406	-27.77865	-581.18695	723.95801	-15.32776	-496.80188	-762.35168	29.22070	636.55768	807.97797	36.34114	639.58130	18.44382	582.81879	-1012.64709	
1788	17.870	-689.88000	-27.75945	-581.26697	724.75580	-15.72017	-496.83069	-761.54498	29.34601	636.47058	809.03558	36.80302	639.60168	19.35778	582.53394	-1012.65131	
1789	17.880	-689.11932	-27.89066	-581.37787	725.77704	-15.88868	-496.79474	-760.31970	29.41989	636.52008	809.61737	36.75594	639.53894	20.77264	582.26160	-1012.61450	
1790	17.890	-688.05621	-28.00283	-581.27753	726.67725	-15.65334	-496.84253	-759.34247	29.64492	636.52136	810.59393	36.90951	639.55847	21.58442	582.11646	-1012.77753	
1791	17.900	-687.07306	-28.22853	-581.36206	727.45215	-15.73324	-496.98459	-758.53455	29.73457	636.58264	811.56873	37.07874	639.59381	22.39555	582.09143	-1012.85602	
1792	17.910	-686.09393	-28.30718	-581.29004	728.61957	-15.89462	-497.05939	-757.40747	29.56655	636.48975	812.71417	37.56683	639.49957	23.28973	582.02582	-1012.69141	
1793	17.920	-685.08752	-28.35750	-581.35748	729.78088	-16.01375	-496.85413	-756.48138	29.97084	636.29681	813.72119	37.56634	639.21161	24.50143	582.05194	-1012.76703	
1794	17.930	-684.07520	-28.45958	-581.31226	730.61786	-15.96707	-497.03162	-755.58929	29.96185	636.35529	814.69202	37.27226	639.58606	25.46811	581.90637	-1012.91724	
1795	17.940	-682.95233	-28.53478	-581.09039	731.57397	-16.16514	-496.94260	-754.60327	29.76071	636.34088	816.09497	37.74401	639.44470	26.27446	581.52838	-1013.12164	
1796	17.950	-682.30933	-28.55534	-581.34424	732.42255	-16.21984	-496.94882	-753.72955	30.00219	636.28894	816.51733	37.76390	639.41510	27.11490	581.17743	-1013.11780	
1797	17.960	-681.06488	-28.91423	-581.50458	733.70764	-16.60527	-496.93518	-752.81366	30.32436	636.36029	817.85065	38.33424	639.86945	28.13509	580.99390	-1013.35828	
1798	17.970	-680.44885	-28.84712	-581.31439	734.30713	-16.66631	-497.01871	-751.86926	30.51358	636.27606	818.84094	37.95910	639.36530	29.09594	580.82281	-1013.74719	
1799	17.980	-679.31079	-28.92543	-581.41821	735.42230	-16.41902	-497.04407	-750.90466	30.53558	636.20245	819.50861	38.08962	639.38336	30.23710	580.67914	-1013.83508	
1800	17.990	-678.14063	-28.86783	-581.56696	736.46448	-16.45606	-497.00732	-749.90619	30.24358	636.28003	820.57751	38.14196	639.35706	31.69972	580.71979	-1013.75397	
1801	18.000	-677.33069	-28.83332	-581.32776	737.18640	-16.64029	-496.90958	-748.91357	30.42503	636.13672	821.48328	37.97972	639.23456	32.71855	580.77252	-1014.03473	
1802	18.010	-676.75244	-28.98300	-581.36072	738.26434	-16.57561	-496.92313	-748.10059	30.45644	636.05963	822.40820	37.94296	639.33667	32.68494	580.79877	-1014.39270	
1803	18.020	-675.63428	-29.02400	-581.34851	739.09979	-16.73470	-496.98840	-747.05389	30.40976	636.28601	823.31952	38.13459	639.29163	33.76508	580.81384	-1014.41028	
1804	18.030	-674.49921	-28.81333	-581.16254	739.92377	-16.74711	-497.10648	-746.25909	30.39257	636.12280	824.23303	38.27993	639.29895	34.74006	580.70013	-1014.17523	
1805	18.040	-673.81256	-28.78347	-581.47260	740.95288	-16.24601	-497.13913	-745.29486	30.34485	636.15753	825.25732	38.07267	639.29584	35.64380	580.87189	-1014.06458	
1806	18.050	-673.01355	-28.70089	-581.47894	742.00427	-16.49182	-496.89120	-744.41638	30.57119	636.26056	825.90326	37.92730	639.35651	36.59893	581.02771	-1013.76361	
1807	18.060	-671.98621	-28.77139	-581.44641	742.85687	-16.42634	-496.86456	-743.50464	30.53030	636.27155	826.85522	38.00288	639.27234	37.58090	580.99054	-1013.52954	
1808	18.070	-671.25873	-28.70490	-581.42169	743.55939	-16.48964	-497.12924	-742.45795	30.22232	636.33899	827.80817	38.02105	639.29150	38.47077	580.90137	-1013.13226	
1809	18.080	-670.23517	-28.84234	-581.39148	744.25647	-16.48780	-497.08600	-741.69812	30.42938	636.27594	828.44214	37.85443	639.30841	39.00491	580.97955	-1013.12659	
1810	18.090	-669.29376	-28.84989	-581.40155	745.43127	-16.55188	-497.14337	-740.99261	30.86336	636.16180	829.71783	38.19999	639.44165	39.57473	581.01904	-1013.35303	
1811	18.100	-668.44745	-28.88020	-581.28442	746.37207	-16.43093	-496.99771	-739.95715	30.58512	636.04370	830.59821	38.13116	639.41064	40.91028	581.17200	-1013.53894	
1812	18.110	-667.53864	-28.85479	-581.36548	747.05682	-16.29178	-496.98419	-739.08020	30.43466	636.14368	830.96265	38.08538	639.26703	41.80233	581.17096	-1013.69110	
1813	18.120	-666.70129	-28.85835	-581.39789	748.10126	-16.34329	-496.96814	-738.25946	30.29048	636.26410	832.38672	38.00439	639.24872	42.42191	581.07709	-1013.72357	
1814	18.130	-665.95465	-28.88301	-581.32654	748.87640	-16.44764	-497.01895	-737.27777	30.07834	636.28973	832.98236	38.04525	639.50476	43.60766	581.20795	-1013.95270	
1815	18.140	-665.14252	-28.75207	-581.28223	749.50208	-16.19405	-496.94791	-736.75092	30.08275	636.21722	833.72809	37.93286	639.38074	44.33834	581.14435	-1014.26636	
1816	18.150	-664.07086	-28.49807	-581.26599	750.51288	-16.21056	-497.08612	-735.69421	30.19716	636.42603	834.72900	37.82901	639.35565	45.05231	581.40430	-1014.24689	
1817	18.160	-663.29132	-28.47567	-581.34583	751.31921	-15.88036	-496.83191	-734.81805	30.03816	636.36011	835.58270	37.74425	639.49811	45.79145	581.63074	-1013.91040	
1818	18.170	-662.66962	-28.37132	-581.39178	752.08563	-15.68723	-496.84769	-734.30133	30.06458	636.35150	835.99353	37.69331	639.53333	46.62097	581.68964	-1013.66711	
1819	18.180	-661.93524	-28.15849	-581.29401	752.93719	-15.83384	-496.91638	-733.47961	30.18965	636.49115	837.06866	37.73663	639.48315	47.58727	581.85339	-1013.23267	
1820	18.190	-661.12360	-28.25173	-581.37183	753.54358	-15.86431	-496.89276	-732.54272	29.76344	636.33777	838.07001	37.66902	639.39264	48.02833	581.93170	-1013.06287	
1821	18.200	-660.32629	-28.11144	-581.27002	754.28552	-15.82938	-496.83435	-731.70660	29.57154	636.26910	838.66852	37.56241	639.70251	48.91492	582.33368	-1012.51624	
1822	18.210	-659.62897	-28.06847	-581.28967	755.26093	-15.52488	-496.84976	-731.08441	29.55613	636.45520	839.13739	37.48828	639.82043	49.93502	582.44739	-1012.16144	
